<svg width="200" height="200" viewBox="0 0 200 200" fill="none" xmlns="http://www.w3.org/2000/svg">
  <path d="M100 190C149.706 190 190 149.706 190 100C190 50.2944 149.706 10 100 10C50.2944 10 10 50.2944 10 100C10 149.706 50.2944 190 100 190Z" fill="#4C1D95" stroke="#8B5CF6" stroke-width="2"/>
  <path d="M135.5 65C132.5 62 128.5 60 124.5 59C120.5 58 116.5 58 112.5 59C108.5 60 104.5 62 101.5 65C98.5 68 96.5 72 95.5 76C94.5 80 94.5 84 95.5 88C96.5 92 98.5 96 101.5 99C104.5 102 108.5 104 112.5 105C116.5 106 120.5 106 124.5 105C128.5 104 132.5 102 135.5 99C138.5 96 140.5 92 141.5 88C142.5 84 142.5 80 141.5 76C140.5 72 138.5 68 135.5 65Z" fill="#C4B5FD"/>
  <circle cx="124" cy="82" r="6" fill="#1E1B4B"/>
  <path d="M70 100C70 88.954 78.954 80 90 80H110C121.046 80 130 88.954 130 100V120C130 131.046 121.046 140 110 140H90C78.954 140 70 131.046 70 120V100Z" fill="#C4B5FD"/>
  <path d="M50 70C50 64.477 54.477 60 60 60H70C75.523 60 80 64.477 80 70V80C80 85.523 75.523 90 70 90H60C54.477 90 50 85.523 50 80V70Z" fill="#C4B5FD"/>
  <path d="M120 70C120 64.477 124.477 60 130 60H140C145.523 60 150 64.477 150 70V80C150 85.523 145.523 90 140 90H130C124.477 90 120 85.523 120 80V70Z" fill="#C4B5FD"/>
  <path d="M90 140C90 134.477 94.477 130 100 130H100C105.523 130 110 134.477 110 140V150C110 155.523 105.523 160 100 160H100C94.477 160 90 155.523 90 150V140Z" fill="#C4B5FD"/>
  <path d="M60 90C60 84.477 64.477 80 70 80H70C75.523 80 80 84.477 80 90V100C80 105.523 75.523 110 70 110H70C64.477 110 60 105.523 60 100V90Z" fill="#C4B5FD"/>
  <path d="M120 90C120 84.477 124.477 80 130 80H130C135.523 80 140 84.477 140 90V100C140 105.523 135.523 110 130 110H130C124.477 110 120 105.523 120 100V90Z" fill="#C4B5FD"/>
</svg>
