<svg width="500" height="500" viewBox="0 0 500 500" xmlns="http://www.w3.org/2000/svg">
  <rect width="500" height="500" fill="#0f0a1e" />
  <g fill="#ffffff">
    <circle cx="50" cy="50" r="1" opacity="0.8" />
    <circle cx="120" cy="30" r="0.8" opacity="0.6" />
    <circle cx="200" cy="70" r="1.2" opacity="0.7" />
    <circle cx="280" cy="40" r="0.7" opacity="0.5" />
    <circle cx="350" cy="90" r="1" opacity="0.8" />
    <circle cx="420" cy="20" r="0.9" opacity="0.7" />
    <circle cx="480" cy="80" r="1.1" opacity="0.6" />
    <circle cx="30" cy="150" r="0.8" opacity="0.7" />
    <circle cx="90" cy="120" r="1" opacity="0.8" />
    <circle cx="170" cy="180" r="0.7" opacity="0.5" />
    <circle cx="250" cy="130" r="1.2" opacity="0.7" />
    <circle cx="330" cy="170" r="0.9" opacity="0.6" />
    <circle cx="400" cy="140" r="1" opacity="0.8" />
    <circle cx="470" cy="190" r="0.8" opacity="0.7" />
    <circle cx="40" cy="250" r="1.1" opacity="0.6" />
    <circle cx="110" cy="220" r="0.7" opacity="0.5" />
    <circle cx="190" cy="270" r="1" opacity="0.8" />
    <circle cx="260" cy="230" r="0.9" opacity="0.7" />
    <circle cx="340" cy="280" r="0.8" opacity="0.6" />
    <circle cx="410" cy="240" r="1.2" opacity="0.7" />
    <circle cx="490" cy="290" r="0.7" opacity="0.5" />
    <circle cx="20" cy="350" r="1" opacity="0.8" />
    <circle cx="80" cy="320" r="0.9" opacity="0.7" />
    <circle cx="160" cy="370" r="0.8" opacity="0.6" />
    <circle cx="240" cy="330" r="1.1" opacity="0.6" />
    <circle cx="310" cy="380" r="0.7" opacity="0.5" />
    <circle cx="390" cy="340" r="1" opacity="0.8" />
    <circle cx="460" cy="390" r="0.9" opacity="0.7" />
    <circle cx="50" cy="450" r="0.8" opacity="0.6" />
    <circle cx="130" cy="420" r="1.2" opacity="0.7" />
    <circle cx="210" cy="470" r="0.7" opacity="0.5" />
    <circle cx="290" cy="430" r="1" opacity="0.8" />
    <circle cx="360" cy="480" r="0.9" opacity="0.7" />
    <circle cx="440" cy="440" r="0.8" opacity="0.6" />
  </g>
</svg>
